<svg xmlns="http://www.w3.org/2000/svg" xml:space="preserve" viewBox="0 0 100 100" id="Minus">
  <g id="_x37_7_Essential_Icons" fill="#e59345" class="color000000 svgShape">
    <path id="Minus" d="M72 50c0 1.1-.9 2-2 2H30c-1.1 0-2-.9-2-2s.9-2 2-2h40c1.1 0 2 .9 2 2zm16 0c0 21-17 38-38 38S12 71 12 50s17-38 38-38 38 17 38 38zm-4 0c0-18.8-15.2-34-34-34S16 31.2 16 50s15.2 34 34 34 34-15.2 34-34z" fill="#e59345" class="color000000 svgShape"></path>
  </g>
  <g id="Info" fill="#e59345" class="color000000 svgShape">
    <path id="BORDER" fill="#ff7c00" d="M1364-1210V474H-420v-1684h1784m8-8H-428V482h1800v-1700z" class="color0000ff svgShape"></path>
  </g>
</svg>
